<svg width="91" height="36" viewBox="0 0 91 36" fill="none" xmlns="http://www.w3.org/2000/svg">
<path d="M4.856 26.648C7.256 27.128 9.064 27.368 10.28 27.368C11.496 27.368 12.584 26.984 13.544 26.216C14.536 25.448 15.112 24.248 15.272 22.616C13.672 23.064 12.392 23.288 11.432 23.288C8.072 23.288 5.48 22.36 3.656 20.504C1.832 18.616 0.92 15.96 0.92 12.536C0.92 9.08 1.96 6.28 4.04 4.136C6.152 1.992 9.032 0.919998 12.68 0.919998C16.328 0.919998 19.192 2.2 21.272 4.76C23.384 7.32 24.44 11.096 24.44 16.088C24.44 22.328 23.32 27.128 21.08 30.488C18.872 33.816 15.576 35.48 11.192 35.48C5.752 35.48 3.032 34.568 3.032 32.744C3.032 31.784 3.224 30.536 3.608 29C3.992 27.432 4.408 26.648 4.856 26.648ZM12.584 9.56C11.56 9.56 10.76 9.896 10.184 10.568C9.64 11.208 9.368 12.04 9.368 13.064C9.368 14.088 9.688 14.92 10.328 15.56C11 16.168 11.848 16.472 12.872 16.472C13.896 16.472 14.728 16.248 15.368 15.8C15.368 13.592 15.16 12.008 14.744 11.048C14.328 10.056 13.608 9.56 12.584 9.56ZM44.1406 14.744C44.7486 14.744 45.0526 15.864 45.0526 18.104C45.0526 18.776 44.9726 19.576 44.8126 20.504C44.6846 21.4 44.4286 21.848 44.0446 21.848H37.9486V26.648H46.7806C47.3246 26.648 47.6926 27.352 47.8846 28.76C47.9806 29.368 48.0286 30.024 48.0286 30.728C48.0286 31.4 47.9326 32.28 47.7406 33.368C47.5486 34.456 47.2286 35 46.7806 35H30.3646C29.1486 35 28.5406 34.504 28.5406 33.512V2.648C28.5406 1.816 28.9086 1.4 29.6446 1.4H46.8286C47.5006 1.4 47.8366 2.824 47.8366 5.672C47.8366 8.488 47.5006 9.896 46.8286 9.896H37.9486V14.744H44.1406ZM85.8125 35.048C82.9645 35.048 81.5405 34.728 81.5405 34.088L80.5325 14.84L74.6765 34.328C74.5485 34.712 73.4605 34.904 71.4125 34.904C69.3645 34.904 68.3085 34.728 68.2445 34.376L62.1965 14.648L61.5245 33.8C61.4925 34.28 60.8845 34.616 59.7005 34.808C58.5165 34.968 57.5245 35.048 56.7245 35.048C55.9565 35.048 55.2045 35 54.4685 34.904C52.9325 34.68 52.1805 34.28 52.2125 33.704L53.3165 2.504C53.3165 1.736 55.2685 1.352 59.1725 1.352C60.3245 1.352 61.7325 1.448 63.3965 1.64C65.0605 1.8 65.9885 2.136 66.1805 2.648L71.5565 17.768L76.2605 2.6C76.5485 1.768 78.7565 1.352 82.8845 1.352C84.0685 1.352 85.4765 1.448 87.1085 1.64C88.7725 1.8 89.6045 2.104 89.6045 2.552L90.9965 34.04C90.9965 34.392 90.3725 34.648 89.1245 34.808C87.8765 34.968 86.7725 35.048 85.8125 35.048Z" fill="black"/>
</svg>
