<svg width="125" height="60" viewBox="0 0 125 60" fill="none" xmlns="http://www.w3.org/2000/svg">
<rect width="125" height="60" fill="#D9D9D9"/>
<path d="M40.688 29.416C40.688 28.328 40.9333 27.352 41.424 26.488C41.9147 25.6133 42.5813 24.9307 43.424 24.44C44.2773 23.9493 45.2213 23.704 46.256 23.704C47.472 23.704 48.5333 23.9973 49.44 24.584C50.3467 25.1707 51.008 26.0027 51.424 27.08H49.68C49.3707 26.408 48.9227 25.8907 48.336 25.528C47.76 25.1653 47.0667 24.984 46.256 24.984C45.4773 24.984 44.7787 25.1653 44.16 25.528C43.5413 25.8907 43.056 26.408 42.704 27.08C42.352 27.7413 42.176 28.52 42.176 29.416C42.176 30.3013 42.352 31.08 42.704 31.752C43.056 32.4133 43.5413 32.9253 44.16 33.288C44.7787 33.6507 45.4773 33.832 46.256 33.832C47.0667 33.832 47.76 33.656 48.336 33.304C48.9227 32.9413 49.3707 32.424 49.68 31.752H51.424C51.008 32.8187 50.3467 33.6453 49.44 34.232C48.5333 34.808 47.472 35.096 46.256 35.096C45.2213 35.096 44.2773 34.856 43.424 34.376C42.5813 33.8853 41.9147 33.208 41.424 32.344C40.9333 31.48 40.688 30.504 40.688 29.416ZM53.0474 30.584C53.0474 29.688 53.2287 28.904 53.5914 28.232C53.954 27.5493 54.45 27.0213 55.0794 26.648C55.7194 26.2747 56.4287 26.088 57.2074 26.088C57.9754 26.088 58.642 26.2533 59.2074 26.584C59.7727 26.9147 60.194 27.3307 60.4714 27.832V26.232H61.9434V35H60.4714V33.368C60.1834 33.88 59.7514 34.3067 59.1754 34.648C58.61 34.9787 57.9487 35.144 57.1914 35.144C56.4127 35.144 55.7087 34.952 55.0794 34.568C54.45 34.184 53.954 33.6453 53.5914 32.952C53.2287 32.2587 53.0474 31.4693 53.0474 30.584ZM60.4714 30.6C60.4714 29.9387 60.338 29.3627 60.0714 28.872C59.8047 28.3813 59.442 28.008 58.9834 27.752C58.5354 27.4853 58.0394 27.352 57.4954 27.352C56.9514 27.352 56.4554 27.48 56.0074 27.736C55.5594 27.992 55.202 28.3653 54.9354 28.856C54.6687 29.3467 54.5354 29.9227 54.5354 30.584C54.5354 31.256 54.6687 31.8427 54.9354 32.344C55.202 32.8347 55.5594 33.2133 56.0074 33.48C56.4554 33.736 56.9514 33.864 57.4954 33.864C58.0394 33.864 58.5354 33.736 58.9834 33.48C59.442 33.2133 59.8047 32.8347 60.0714 32.344C60.338 31.8427 60.4714 31.2613 60.4714 30.6ZM65.8599 27.848C66.1479 27.3467 66.5745 26.9307 67.1399 26.6C67.7159 26.2587 68.3825 26.088 69.1399 26.088C69.9185 26.088 70.6225 26.2747 71.2519 26.648C71.8919 27.0213 72.3932 27.5493 72.7559 28.232C73.1185 28.904 73.2999 29.688 73.2999 30.584C73.2999 31.4693 73.1185 32.2587 72.7559 32.952C72.3932 33.6453 71.8919 34.184 71.2519 34.568C70.6225 34.952 69.9185 35.144 69.1399 35.144C68.3932 35.144 67.7319 34.9787 67.1559 34.648C66.5905 34.3067 66.1585 33.8853 65.8599 33.384V39.16H64.4039V26.232H65.8599V27.848ZM71.8119 30.584C71.8119 29.9227 71.6785 29.3467 71.4119 28.856C71.1452 28.3653 70.7825 27.992 70.3239 27.736C69.8759 27.48 69.3799 27.352 68.8359 27.352C68.3025 27.352 67.8065 27.4853 67.3479 27.752C66.8999 28.008 66.5372 28.3867 66.2599 28.888C65.9932 29.3787 65.8599 29.9493 65.8599 30.6C65.8599 31.2613 65.9932 31.8427 66.2599 32.344C66.5372 32.8347 66.8999 33.2133 67.3479 33.48C67.8065 33.736 68.3025 33.864 68.8359 33.864C69.3799 33.864 69.8759 33.736 70.3239 33.48C70.7825 33.2133 71.1452 32.8347 71.4119 32.344C71.6785 31.8427 71.8119 31.256 71.8119 30.584ZM74.6724 30.584C74.6724 29.688 74.8537 28.904 75.2164 28.232C75.579 27.5493 76.075 27.0213 76.7044 26.648C77.3444 26.2747 78.0537 26.088 78.8324 26.088C79.6004 26.088 80.267 26.2533 80.8324 26.584C81.3977 26.9147 81.819 27.3307 82.0964 27.832V26.232H83.5684V35H82.0964V33.368C81.8084 33.88 81.3764 34.3067 80.8004 34.648C80.235 34.9787 79.5737 35.144 78.8164 35.144C78.0377 35.144 77.3337 34.952 76.7044 34.568C76.075 34.184 75.579 33.6453 75.2164 32.952C74.8537 32.2587 74.6724 31.4693 74.6724 30.584ZM82.0964 30.6C82.0964 29.9387 81.963 29.3627 81.6964 28.872C81.4297 28.3813 81.067 28.008 80.6084 27.752C80.1604 27.4853 79.6644 27.352 79.1204 27.352C78.5764 27.352 78.0804 27.48 77.6324 27.736C77.1844 27.992 76.827 28.3653 76.5604 28.856C76.2937 29.3467 76.1604 29.9227 76.1604 30.584C76.1604 31.256 76.2937 31.8427 76.5604 32.344C76.827 32.8347 77.1844 33.2133 77.6324 33.48C78.0804 33.736 78.5764 33.864 79.1204 33.864C79.6644 33.864 80.1604 33.736 80.6084 33.48C81.067 33.2133 81.4297 32.8347 81.6964 32.344C81.963 31.8427 82.0964 31.2613 82.0964 30.6Z" fill="black"/>
</svg>
