<svg width="125" height="138" viewBox="0 0 125 138" fill="none" xmlns="http://www.w3.org/2000/svg">
<rect width="125" height="138" fill="#D9D9D9"/>
<path d="M40.688 63.416C40.688 62.328 40.9333 61.352 41.424 60.488C41.9147 59.6133 42.5813 58.9307 43.424 58.44C44.2773 57.9493 45.2213 57.704 46.256 57.704C47.472 57.704 48.5333 57.9973 49.44 58.584C50.3467 59.1707 51.008 60.0027 51.424 61.08H49.68C49.3707 60.408 48.9227 59.8907 48.336 59.528C47.76 59.1653 47.0667 58.984 46.256 58.984C45.4773 58.984 44.7787 59.1653 44.16 59.528C43.5413 59.8907 43.056 60.408 42.704 61.08C42.352 61.7413 42.176 62.52 42.176 63.416C42.176 64.3013 42.352 65.08 42.704 65.752C43.056 66.4133 43.5413 66.9253 44.16 67.288C44.7787 67.6507 45.4773 67.832 46.256 67.832C47.0667 67.832 47.76 67.656 48.336 67.304C48.9227 66.9413 49.3707 66.424 49.68 65.752H51.424C51.008 66.8187 50.3467 67.6453 49.44 68.232C48.5333 68.808 47.472 69.096 46.256 69.096C45.2213 69.096 44.2773 68.856 43.424 68.376C42.5813 67.8853 41.9147 67.208 41.424 66.344C40.9333 65.48 40.688 64.504 40.688 63.416ZM53.0474 64.584C53.0474 63.688 53.2287 62.904 53.5914 62.232C53.954 61.5493 54.45 61.0213 55.0794 60.648C55.7194 60.2747 56.4287 60.088 57.2074 60.088C57.9754 60.088 58.642 60.2533 59.2074 60.584C59.7727 60.9147 60.194 61.3307 60.4714 61.832V60.232H61.9434V69H60.4714V67.368C60.1834 67.88 59.7514 68.3067 59.1754 68.648C58.61 68.9787 57.9487 69.144 57.1914 69.144C56.4127 69.144 55.7087 68.952 55.0794 68.568C54.45 68.184 53.954 67.6453 53.5914 66.952C53.2287 66.2587 53.0474 65.4693 53.0474 64.584ZM60.4714 64.6C60.4714 63.9387 60.338 63.3627 60.0714 62.872C59.8047 62.3813 59.442 62.008 58.9834 61.752C58.5354 61.4853 58.0394 61.352 57.4954 61.352C56.9514 61.352 56.4554 61.48 56.0074 61.736C55.5594 61.992 55.202 62.3653 54.9354 62.856C54.6687 63.3467 54.5354 63.9227 54.5354 64.584C54.5354 65.256 54.6687 65.8427 54.9354 66.344C55.202 66.8347 55.5594 67.2133 56.0074 67.48C56.4554 67.736 56.9514 67.864 57.4954 67.864C58.0394 67.864 58.5354 67.736 58.9834 67.48C59.442 67.2133 59.8047 66.8347 60.0714 66.344C60.338 65.8427 60.4714 65.2613 60.4714 64.6ZM65.8599 61.848C66.1479 61.3467 66.5745 60.9307 67.1399 60.6C67.7159 60.2587 68.3825 60.088 69.1399 60.088C69.9185 60.088 70.6225 60.2747 71.2519 60.648C71.8919 61.0213 72.3932 61.5493 72.7559 62.232C73.1185 62.904 73.2999 63.688 73.2999 64.584C73.2999 65.4693 73.1185 66.2587 72.7559 66.952C72.3932 67.6453 71.8919 68.184 71.2519 68.568C70.6225 68.952 69.9185 69.144 69.1399 69.144C68.3932 69.144 67.7319 68.9787 67.1559 68.648C66.5905 68.3067 66.1585 67.8853 65.8599 67.384V73.16H64.4039V60.232H65.8599V61.848ZM71.8119 64.584C71.8119 63.9227 71.6785 63.3467 71.4119 62.856C71.1452 62.3653 70.7825 61.992 70.3239 61.736C69.8759 61.48 69.3799 61.352 68.8359 61.352C68.3025 61.352 67.8065 61.4853 67.3479 61.752C66.8999 62.008 66.5372 62.3867 66.2599 62.888C65.9932 63.3787 65.8599 63.9493 65.8599 64.6C65.8599 65.2613 65.9932 65.8427 66.2599 66.344C66.5372 66.8347 66.8999 67.2133 67.3479 67.48C67.8065 67.736 68.3025 67.864 68.8359 67.864C69.3799 67.864 69.8759 67.736 70.3239 67.48C70.7825 67.2133 71.1452 66.8347 71.4119 66.344C71.6785 65.8427 71.8119 65.256 71.8119 64.584ZM74.6724 64.584C74.6724 63.688 74.8537 62.904 75.2164 62.232C75.579 61.5493 76.075 61.0213 76.7044 60.648C77.3444 60.2747 78.0537 60.088 78.8324 60.088C79.6004 60.088 80.267 60.2533 80.8324 60.584C81.3977 60.9147 81.819 61.3307 82.0964 61.832V60.232H83.5684V69H82.0964V67.368C81.8084 67.88 81.3764 68.3067 80.8004 68.648C80.235 68.9787 79.5737 69.144 78.8164 69.144C78.0377 69.144 77.3337 68.952 76.7044 68.568C76.075 68.184 75.579 67.6453 75.2164 66.952C74.8537 66.2587 74.6724 65.4693 74.6724 64.584ZM82.0964 64.6C82.0964 63.9387 81.963 63.3627 81.6964 62.872C81.4297 62.3813 81.067 62.008 80.6084 61.752C80.1604 61.4853 79.6644 61.352 79.1204 61.352C78.5764 61.352 78.0804 61.48 77.6324 61.736C77.1844 61.992 76.827 62.3653 76.5604 62.856C76.2937 63.3467 76.1604 63.9227 76.1604 64.584C76.1604 65.256 76.2937 65.8427 76.5604 66.344C76.827 66.8347 77.1844 67.2133 77.6324 67.48C78.0804 67.736 78.5764 67.864 79.1204 67.864C79.6644 67.864 80.1604 67.736 80.6084 67.48C81.067 67.2133 81.4297 66.8347 81.6964 66.344C81.963 65.8427 82.0964 65.2613 82.0964 64.6Z" fill="black"/>
</svg>
